<svg width="1512" height="621" viewBox="0 0 1512 621" fill="none" xmlns="http://www.w3.org/2000/svg">
<mask id="mask0_24_209" style="mask-type:luminance" maskUnits="userSpaceOnUse" x="-1" y="0" width="1514" height="78">
<path d="M1512 0.767639H0.000488281V77.4396H1512V0.767639Z" fill="url(#paint0_linear_24_209)" stroke="#919191" stroke-width="0.665792" stroke-miterlimit="2.61313"/>
</mask>
<g mask="url(#mask0_24_209)">
<path d="M0.0742188 59.6078C76.3057 76.2572 153.382 78.8502 228.328 73.8544C305.179 68.7314 379.783 55.6336 448.94 41.5364C738.089 -17.4056 958.321 0.629221 1147.43 16.1152C1279.9 26.963 1397.08 36.5524 1511.93 17.5272V18.7879C1396.96 37.7808 1279.75 28.1895 1147.27 17.3403C958.288 1.86478 738.205 -16.1582 449.331 42.7278C380.091 56.8421 305.399 69.9556 228.456 75.0847C153.489 80.082 76.3778 77.4989 0.0742188 60.8851V59.6082V59.6078Z" fill="#DBDBDB" stroke="#E4E4E4" stroke-width="0.665792" stroke-miterlimit="2.61313"/>
</g>
<mask id="mask1_24_209" style="mask-type:luminance" maskUnits="userSpaceOnUse" x="-1" y="117" width="1514" height="84">
<path d="M1512 117.66H0.000488281V200.444H1512V117.66Z" fill="url(#paint1_linear_24_209)" stroke="#919191" stroke-width="0.665792" stroke-miterlimit="2.61313"/>
</mask>
<g mask="url(#mask1_24_209)">
<path d="M0.0744629 187.947C127.901 198.384 252.795 201.724 374.5 197.099C498.054 192.404 618.321 179.501 735.032 157.485C958.466 115.338 1130.15 110.368 1264.62 125.623C1366.19 137.147 1446.54 160.211 1511.93 187.511V188.903C1446.55 161.531 1366.15 138.386 1264.4 126.843C1130.09 111.607 958.608 116.576 735.393 158.681C618.579 180.717 498.217 193.63 374.573 198.329C252.838 202.955 127.92 199.618 0.0744629 189.185V187.947Z" fill="#DBDBDB" stroke="#E4E4E4" stroke-width="0.665792" stroke-miterlimit="2.61313"/>
</g>
<mask id="mask2_24_209" style="mask-type:luminance" maskUnits="userSpaceOnUse" x="-1" y="260" width="1514" height="73">
<path d="M1512 261.074H0.000488281V331.912H1512V261.074Z" fill="url(#paint2_linear_24_209)" stroke="#919191" stroke-width="0.665792" stroke-miterlimit="2.61313"/>
</mask>
<g mask="url(#mask2_24_209)">
<path d="M0.074428 318.093C149.702 331.355 297.475 333.396 444.144 327.388C593.225 321.281 741.173 306.856 888.774 287.443C1031.95 268.611 1157.08 260.779 1263.63 261.164C1362.55 261.522 1445.45 268.965 1511.93 281.264V282.527C1445.5 270.208 1362.6 262.752 1263.62 262.394C1157.17 262.009 1032.13 269.837 889.031 288.658C741.381 308.078 593.375 322.508 444.223 328.618C297.524 334.628 149.723 332.588 0.0739746 319.333V318.093L0.074428 318.093Z" fill="#DBDBDB" stroke="#E4E4E4" stroke-width="0.665792" stroke-miterlimit="2.61313"/>
</g>
<mask id="mask3_24_209" style="mask-type:luminance" maskUnits="userSpaceOnUse" x="-1" y="402" width="1514" height="74">
<path d="M1512 402.456H0.000488281V475.336H1512V402.456Z" fill="url(#paint3_linear_24_209)" stroke="#919191" stroke-width="0.665792" stroke-miterlimit="2.61313"/>
</mask>
<g mask="url(#mask3_24_209)">
<path d="M0.0744629 427.387C91.79 414.237 183.296 405.188 273.928 403.029C368.078 400.787 461.277 405.98 552.776 421.732C771.241 459.341 964.161 477.611 1132.44 473.445C1276.9 469.87 1403.21 449.759 1511.93 411.158V412.507C1403.16 451.027 1276.88 471.101 1132.49 474.675C964.065 478.844 771.021 460.566 552.445 422.937C461.065 407.206 367.992 402.02 273.971 404.259C183.338 406.418 91.8158 415.476 0.0744629 428.637V427.386V427.387Z" fill="#DBDBDB" stroke="#E4E4E4" stroke-width="0.665792" stroke-miterlimit="2.61313"/>
</g>
<mask id="mask4_24_209" style="mask-type:luminance" maskUnits="userSpaceOnUse" x="-1" y="514" width="1514" height="107">
<path d="M1512 514.908H0.000488281V619.976H1512V514.908Z" fill="url(#paint4_linear_24_209)" stroke="#919191" stroke-width="0.665792" stroke-miterlimit="2.61313"/>
</mask>
<g mask="url(#mask4_24_209)">
<path d="M0.074428 514.985C66.6971 520.089 129.011 527.418 187.41 535.724C248.41 544.4 305.12 554.138 358.006 563.521C598.029 606.107 814.21 623.627 1006.16 617.47C1199.46 611.27 1368.17 581.056 1511.93 528.253V529.613C1368.13 582.334 1199.43 612.502 1006.22 618.7C814.137 624.861 597.821 607.332 357.663 564.722C304.778 555.339 248.078 545.602 187.135 536.934C128.816 528.64 66.5929 521.321 0.0739746 516.22V514.984L0.074428 514.985Z" fill="#DBDBDB" stroke="#E4E4E4" stroke-width="0.665792" stroke-miterlimit="2.61313"/>
</g>
<defs>
<linearGradient id="paint0_linear_24_209" x1="17.1448" y1="416.44" x2="1511.93" y2="411.614" gradientUnits="userSpaceOnUse">
<stop stop-color="white" stop-opacity="0"/>
<stop offset="0.0705882" stop-color="white"/>
<stop offset="0.521569" stop-color="white" stop-opacity="0.478431"/>
<stop offset="0.921569" stop-color="white"/>
<stop offset="1" stop-color="white" stop-opacity="0"/>
</linearGradient>
<linearGradient id="paint1_linear_24_209" x1="17.1448" y1="416.44" x2="1511.93" y2="411.614" gradientUnits="userSpaceOnUse">
<stop stop-color="white" stop-opacity="0"/>
<stop offset="0.0705882" stop-color="white"/>
<stop offset="0.521569" stop-color="white" stop-opacity="0.478431"/>
<stop offset="0.921569" stop-color="white"/>
<stop offset="1" stop-color="white" stop-opacity="0"/>
</linearGradient>
<linearGradient id="paint2_linear_24_209" x1="17.1448" y1="416.44" x2="1511.93" y2="411.614" gradientUnits="userSpaceOnUse">
<stop stop-color="white" stop-opacity="0"/>
<stop offset="0.0705882" stop-color="white"/>
<stop offset="0.521569" stop-color="white" stop-opacity="0.478431"/>
<stop offset="0.921569" stop-color="white"/>
<stop offset="1" stop-color="white" stop-opacity="0"/>
</linearGradient>
<linearGradient id="paint3_linear_24_209" x1="17.1448" y1="416.44" x2="1511.93" y2="411.614" gradientUnits="userSpaceOnUse">
<stop stop-color="white" stop-opacity="0"/>
<stop offset="0.0705882" stop-color="white"/>
<stop offset="0.521569" stop-color="white" stop-opacity="0.478431"/>
<stop offset="0.921569" stop-color="white"/>
<stop offset="1" stop-color="white" stop-opacity="0"/>
</linearGradient>
<linearGradient id="paint4_linear_24_209" x1="17.1448" y1="416.44" x2="1511.93" y2="411.614" gradientUnits="userSpaceOnUse">
<stop stop-color="white" stop-opacity="0"/>
<stop offset="0.0705882" stop-color="white"/>
<stop offset="0.521569" stop-color="white" stop-opacity="0.478431"/>
<stop offset="0.921569" stop-color="white"/>
<stop offset="1" stop-color="white" stop-opacity="0"/>
</linearGradient>
</defs>
</svg>
