<svg width="355" height="300" viewBox="0 0 355 300" fill="none" xmlns="http://www.w3.org/2000/svg">
<path d="M24.5132 254.421C25.9232 255.292 27.3886 256.081 28.8264 256.911C31.0825 258.119 33.332 259.293 35.658 260.309L36.6401 258.018C32.9027 256.309 29.3103 254.429 25.7746 252.289L24.4789 254.427L24.5132 254.421ZM322.788 69.2341L321.759 64.9741L316.598 67.8878L310.184 86.3375L284.823 95.4365L286.657 97.2246L308.258 95.0141L305.732 110.58L293.508 116.308L294.765 118.42L307.291 115.38L312.683 122.763C314.602 122.395 315.081 122.303 315.081 122.303L309.81 111.653C313.88 102.673 316.369 97.4901 316.369 97.4901L331.447 110.006L334.809 109.755L319.045 88.2776L322.835 69.2963L322.788 69.2341ZM132.974 228.876L132.919 228.957C132.009 228.846 131.059 228.707 130.15 228.596L128.324 228.34L127.943 230.801L129.769 231.058L131.191 231.249L130.223 232.504L132.189 234.053C132.818 233.255 133.44 232.423 134.062 231.591L135.731 231.771L136.927 231.898C138.083 231.998 139.273 232.091 140.429 232.19L140.591 229.699L138.321 229.528C137.452 229.444 136.59 229.395 135.756 229.306C137.042 227.49 138.254 225.654 139.424 223.79L137.32 222.446C135.928 224.637 134.523 226.761 133.008 228.869L132.974 228.876ZM88.1214 149.537C89.0796 149.532 90.0034 149.533 90.9615 149.528L91.0145 147.022C86.6971 146.921 82.4692 147.66 78.3809 148.942L79.1226 151.331C82.0379 150.416 85.0942 149.867 88.1214 149.537ZM42.665 263.139C45.0265 263.971 47.4026 264.693 49.8407 265.367L51.4801 265.766C52.2998 265.965 53.1129 266.131 53.9326 266.33L54.8552 266.51L55.3114 264.07C51.2932 263.306 47.3462 262.172 43.4968 260.805L42.6715 263.174L42.665 263.139ZM62.3407 267.573C66.5738 267.975 70.762 267.957 74.9939 267.61L74.7661 265.122C70.678 265.477 66.6544 265.428 62.5716 265.068L62.375 267.566L62.3407 267.573ZM82.5021 266.565C86.6483 265.771 90.7154 264.564 94.6482 263.027L93.7418 260.705C89.9394 262.181 86.0028 263.327 82.0345 264.123L82.5363 266.558L82.5021 266.565ZM101.549 259.923C105.272 258.033 108.923 255.765 112.329 253.331L110.873 251.292C107.563 253.672 104.071 255.839 100.444 257.674L101.577 259.882L101.549 259.923ZM118.249 248.631C121.452 245.879 124.444 242.953 127.26 239.846L125.411 238.168C122.657 241.227 119.721 244.071 116.614 246.769L118.256 248.666L118.249 248.631ZM143.169 217.189C145.161 213.492 146.996 209.718 148.64 205.873L146.355 204.884C144.738 208.688 142.959 212.381 140.988 216.003L143.169 217.189ZM151.409 198.818C152.821 194.875 154.111 190.849 155.147 186.799L152.75 186.153C151.7 190.134 150.466 194.078 149.076 197.945L151.403 198.783L151.409 198.818ZM156.865 179.446C157.704 175.292 158.343 171.212 158.854 167.014L156.385 166.738C155.958 170.813 155.256 174.941 154.426 178.951L156.865 179.446ZM159.471 159.479C159.751 155.004 159.385 150.867 157.767 146.684L155.454 147.591C156.938 151.443 157.204 155.243 156.995 159.347L159.471 159.479ZM153.733 139.898C150.775 136.506 147.144 134.242 142.919 132.769L142.128 135.131C145.937 136.47 149.199 138.484 151.88 141.536L153.733 139.898ZM135.279 131.273C130.696 131.081 126.922 131.411 122.518 132.896L123.328 135.272C127.362 133.894 130.896 133.609 135.083 133.77L135.245 131.279L135.279 131.273ZM115.526 136.267C111.84 138.72 108.859 141.894 106.811 145.851L109.02 146.997C110.853 143.402 113.543 140.569 116.886 138.36L115.492 136.274L115.526 136.267ZM104.408 153.336C103.76 157.56 104.055 162.068 105.132 166.211L107.539 165.608C106.555 161.767 106.264 157.651 106.862 153.722L104.414 153.37L104.408 153.336ZM112.247 171.089C113.446 170.859 114.444 170.133 115.184 169.171C117.492 166.198 117.189 161.835 115.674 158.559L113.421 159.597C114.337 161.596 114.695 164.024 113.968 166.16C113.597 167.193 112.87 168.402 111.704 168.625L112.206 171.061L112.247 171.089ZM110.56 152.443C107.116 149.858 102.692 148.458 98.537 147.721L98.1216 150.189C101.914 150.889 105.95 152.113 109.101 154.469L110.56 152.443ZM71.1927 152.029C67.3363 154.337 64.343 157.441 62.3077 161.468L64.5164 162.614C66.35 159.018 69.0191 156.261 72.4906 154.17L71.1927 152.029ZM59.8978 168.918C59.1606 173.231 59.2801 177.38 59.7949 181.738L62.2541 181.41C61.792 177.327 61.6501 173.432 62.3583 169.338L59.8978 168.918ZM62.3126 189.136L62.4469 189.467L62.8238 190.322L63.2349 191.17L63.6459 192.018L64.0913 192.86L64.5367 193.702L65.0097 194.503L65.4827 195.303L65.9558 196.104L66.4631 196.898L66.9704 197.693L67.5119 198.48L68.0469 199.234L68.7242 200.174L70.7065 198.653L70.0767 197.775L69.5483 197.057L69.0541 196.331L68.5534 195.571L68.087 194.805L67.6205 194.038L67.1541 193.272L66.7219 192.499L66.2897 191.726L65.8918 190.946L65.4873 190.132L65.117 189.312L64.7468 188.491L64.6124 188.161L62.3534 189.164L62.3126 189.136ZM73.7316 205.918L74.2139 206.396L74.9136 207.082L75.6068 207.734L76.2999 208.386L77.0273 209.031L77.7547 209.676L78.4821 210.321L79.2372 210.925L79.9923 211.53L80.7817 212.127L81.571 212.725L82.3604 213.323L83.4291 214.081L84.8474 212.026L83.8195 211.296L83.0368 210.733L82.2883 210.163L81.5397 209.593L80.7847 208.989L80.0638 208.378L79.343 207.768L78.6565 207.15L77.9699 206.533L77.2833 205.916L76.6311 205.292L75.9722 204.633L75.4899 204.155L73.7316 205.918ZM89.8521 218.128L90.8879 218.714L91.8012 219.216L92.7078 219.685L93.6145 220.153L94.5554 220.615L95.4963 221.076L96.4373 221.538L97.4059 221.958L98.3745 222.379L99.3431 222.8L100.346 223.214L101.192 223.551L102.099 221.238L101.253 220.901L100.291 220.515L99.3223 220.094L98.388 219.667L97.4536 219.24L96.5193 218.812L95.6192 218.378L94.7125 217.91L93.8059 217.442L92.8992 216.974L92.0268 216.499L90.9976 215.947L89.777 218.107L89.8521 218.128ZM108.331 226.142L109.58 226.545L110.638 226.877L111.697 227.209L112.783 227.5L113.868 227.792L114.954 228.083L116.04 228.374L117.16 228.659L119.388 229.159L120.46 229.382L120.951 226.935L118.799 226.455L117.72 226.198L116.64 225.942L115.561 225.685L114.475 225.393L113.423 225.096L112.372 224.798L111.32 224.5L110.268 224.202L109.019 223.8L108.269 226.19L108.331 226.142ZM147.893 232.401L150.316 232.437L152.8 232.424L155.312 232.371L156.585 232.342L157.852 232.277L159.118 232.213L160.453 232.136L160.294 229.635C159.452 229.689 158.603 229.709 157.761 229.763L156.529 229.821L154.051 229.867L151.601 229.873L149.144 229.844L147.968 229.82L147.949 232.319L147.893 232.401ZM167.916 231.598C168.786 231.503 169.656 231.408 170.526 231.312L173.094 230.999L175.657 230.651L176.938 230.477L178.212 230.269L180.315 229.937L179.882 227.489C178.779 227.664 177.676 227.84 176.539 228.022L175.257 228.196L172.73 228.537C171.031 228.755 169.326 228.939 167.62 229.123L167.882 231.605L167.916 231.598ZM187.71 228.486C188.834 228.235 189.959 227.984 191.117 227.726L192.406 227.408L193.695 227.09L194.984 226.772L197.555 226.101L199.88 225.442L199.173 223.046C197.993 223.379 196.814 223.712 195.634 224.045L193.097 224.709L191.842 225.02L189.292 225.615L187.215 226.084L187.751 228.513L187.71 228.486ZM207.014 223.185L208.983 222.523L210.246 222.067L211.508 221.611L212.771 221.156L214.027 220.665L215.283 220.175L216.539 219.685L218.715 218.805L217.74 216.496L215.598 217.37L214.377 217.853L213.121 218.343L211.865 218.833L210.602 219.289L208.111 220.194L206.142 220.856L206.952 223.232L207.014 223.185ZM225.616 215.701L226.495 215.283L227.731 214.69L228.967 214.097L230.197 213.469L231.427 212.841L232.622 212.22L233.811 211.565L235 210.909L236.732 209.936L235.502 207.782L233.805 208.749L232.616 209.405L231.42 210.026L230.225 210.647L229.03 211.268L227.828 211.855L226.626 212.441L224.545 213.446L225.616 215.701ZM243.207 206.093L244.445 205.321L245.614 204.563L246.748 203.81L247.883 203.058L249.011 202.272L250.14 201.485L251.268 200.699L252.389 199.878L253.539 199.016L252.021 197.025L250.899 197.846L249.812 198.66L248.718 199.44L247.59 200.226L246.461 201.013L245.327 201.765L244.192 202.517L243.057 203.269L241.854 204.035L243.179 206.134L243.207 206.093ZM259.459 194.317L260.072 193.807L261.14 192.89L262.207 191.972L263.275 191.055L264.302 190.109L265.328 189.164L266.355 188.219L267.375 187.239L268.782 185.864L267.022 184.097L265.644 185.431L264.651 186.37L263.625 187.315L262.598 188.261L261.565 189.172L260.531 190.082L259.498 190.993L257.845 192.38L259.453 194.282L259.459 194.317ZM274.043 180.507L275.278 179.165L276.21 178.095L277.142 177.025L278.067 175.921L278.993 174.817L279.918 173.713L280.802 172.581L282.143 170.862L280.183 169.348L279.755 169.893L278.871 171.025L277.98 172.123L277.089 173.22L276.191 174.284L275.293 175.347L274.361 176.417L273.423 177.452L272.222 178.787L274.071 180.466L274.043 180.507ZM286.561 164.81L287.613 163.254L288.409 162.032L289.205 160.81L289.995 159.553L290.784 158.297L291.54 157.047L292.288 155.763L293.19 154.164L291.003 152.942L290.129 154.5L289.373 155.75L288.618 157L287.863 158.25L287.101 159.466L286.305 160.688L285.502 161.876L284.45 163.432L286.499 164.858L286.561 164.81ZM296.778 147.487L297.292 146.461L297.953 145.087L298.613 143.712L299.233 142.31L299.852 140.908L300.472 139.506L301.085 138.069L301.664 136.639L301.901 136.023L299.595 135.11L299.357 135.726L298.779 137.156L298.193 138.551L297.608 139.947L296.982 141.315L296.356 142.683L295.73 144.05L295.063 145.39L294.548 146.416L296.785 147.521L296.778 147.487ZM304.486 128.932L304.864 127.754L305.355 126.234L305.845 124.714L306.295 123.166L306.744 121.618L307.187 120.035L307.596 118.46L308.005 116.884L305.58 116.278L305.171 117.854L304.756 119.396L304.341 120.937L303.891 122.485L303.435 123.999L302.979 125.512L302.482 126.998L302.103 128.176L304.458 128.973L304.486 128.932Z" fill="white"/>
<path fill-rule="evenodd" clip-rule="evenodd" d="M58.3493 24.0262C70.695 24.9396 81.6162 15.6985 82.5297 3.3528C81.6162 15.6985 90.8573 26.6197 103.203 27.5332C90.8573 26.6197 79.9361 35.8608 79.0226 48.2065C79.9361 35.8608 70.695 24.9396 58.3493 24.0262Z" fill="white"/>
<path fill-rule="evenodd" clip-rule="evenodd" d="M95.0242 55.4629C100.914 55.8987 106.125 51.4898 106.561 45.5997C106.125 51.4898 110.534 56.7003 116.424 57.1361C110.534 56.7003 105.323 61.1092 104.887 66.9993C105.323 61.1092 100.914 55.8987 95.0242 55.4629Z" fill="white"/>
<path fill-rule="evenodd" clip-rule="evenodd" d="M310.854 283.003C315.169 282.889 318.763 286.294 318.875 290.618C318.887 290.921 318.875 291.224 318.85 291.514L319.049 291.551C319.583 289.862 321.138 288.626 323.003 288.576C325.366 288.513 327.33 290.379 327.392 292.749C327.392 292.875 327.392 293.014 327.38 293.14C327.989 292.623 328.785 292.295 329.656 292.27C331.683 292.22 333.374 293.821 333.423 295.851C333.473 297.881 331.881 299.583 329.842 299.633C320.18 300.024 308.653 300.1 295.285 299.873L295.298 299.823H295.273C293.744 299.86 292.463 298.65 292.425 297.124C292.388 295.586 293.594 294.313 295.124 294.262C295.261 294.262 295.41 294.262 295.547 294.287C295.497 294.048 295.472 293.796 295.46 293.544C295.397 291.173 297.263 289.206 299.625 289.143C301.093 289.105 302.411 289.811 303.207 290.921C303.169 286.659 306.552 283.141 310.817 283.028L310.854 283.003Z" fill="white"/>
<path d="M211.97 147C214.19 147 215.965 147.888 217.297 149.219C218.628 150.551 219.516 152.326 219.516 154.546C219.516 156.765 218.628 158.541 217.297 159.872C215.965 161.204 214.19 162.092 211.97 162.092C209.751 162.092 207.976 161.204 206.644 159.872C205.312 158.541 204.425 156.765 204.425 154.546C204.425 152.326 205.312 150.551 206.644 149.219C207.976 147.888 209.751 147 211.97 147ZM215.078 151.439C214.19 150.551 213.302 150.107 211.97 150.107C210.639 150.107 209.751 150.551 208.863 151.439C207.976 152.326 207.532 153.214 207.532 154.546C207.532 155.877 207.976 156.765 208.863 157.653C209.751 158.541 210.639 158.985 211.97 158.985C213.302 158.985 214.19 158.541 215.078 157.653C215.965 156.765 216.409 155.877 216.409 154.546C216.409 153.214 215.965 152.326 215.078 151.439Z" fill="white"/>
</svg>
