<svg  fill="current" stroke="current" xmlns="http://www.w3.org/2000/svg" width="24.824" height="15.867" viewBox="0 0 24.824 15.867">
  <path id="keyboard_backspace_FILL0_wght400_GRAD0_opsz48" d="M24.2,28.175,31.109,21.3a1.069,1.069,0,0,0,.245-.351,1.1,1.1,0,0,0,0-.771,1.068,1.068,0,0,0-.245-.351L24.2,12.923a1.056,1.056,0,0,0-.736-.3.992.992,0,0,0-.771.3,1.058,1.058,0,0,0,0,1.508l5.084,5.084H7.652a1.052,1.052,0,1,0,0,2.1H27.778L22.694,26.7a1.035,1.035,0,0,0-.3.719.97.97,0,0,0,.3.754,1.058,1.058,0,0,0,1.508,0Z" transform="translate(-6.6 -12.624)"/>
</svg>
