<?xml version="1.0" encoding="UTF-8"?>
<svg width="28px" height="13px" viewBox="0 0 28 13" version="1.1" xmlns="http://www.w3.org/2000/svg" xmlns:xlink="http://www.w3.org/1999/xlink">
    <title>Path</title>
    <g id="Page-1" stroke="none" stroke-width="1" fill="none" fill-rule="evenodd">
        <g id="Home---Desktop" transform="translate(-1301.000000, -779.000000)" fill="#FFFFFF" fill-rule="nonzero">
            <g id="trending_flat_FILL0_wght500_GRAD0_opsz48" transform="translate(1301.000000, 779.000000)">
                <path d="M23.6666667,7.76574655 L1.25925926,7.76574655 C0.888888889,7.76574655 0.586419753,7.64694688 0.351851852,7.40934755 C0.117283951,7.17174822 0,6.86537014 0,6.4902133 C0,6.11505646 0.117283951,5.80867838 0.351851852,5.57107905 C0.586419753,5.33347972 0.888888889,5.21468005 1.25925926,5.21468005 L23.7037037,5.21468005 L20.6666667,2.13839398 C20.4444444,1.91329987 20.3333333,1.63193225 20.3333333,1.29429109 C20.3333333,0.956649937 20.4567901,0.650271853 20.7037037,0.375156838 C20.9506173,0.125052279 21.2469136,0 21.5925926,0 C21.9382716,0 22.2345679,0.125052279 22.4814815,0.375156838 L27.6296296,5.58983689 C27.7530864,5.73989962 27.845679,5.88370974 27.9074074,6.02126725 C27.9691358,6.15882476 28,6.31514011 28,6.4902133 C28,6.66528649 27.9691358,6.82160184 27.9074074,6.95915935 C27.845679,7.09671685 27.7530864,7.24052698 27.6296296,7.39058971 L22.4814815,12.6052698 C22.2098765,12.8803848 21.9135802,13.0116897 21.5925926,12.9991844 C21.2716049,12.9866792 20.9753086,12.8553743 20.7037037,12.6052698 C20.4567901,12.3551652 20.3333333,12.0487871 20.3333333,11.6861355 C20.3333333,11.3234839 20.4444444,11.029611 20.6666667,10.8045169 L23.6666667,7.76574655 Z" id="Path"></path>
            </g>
        </g>
    </g>
</svg>