<?xml version="1.0" encoding="UTF-8"?>
<svg width="46px" height="41px" viewBox="0 0 46 41" version="1.1" xmlns="http://www.w3.org/2000/svg" xmlns:xlink="http://www.w3.org/1999/xlink">
    <title>add_a_photo_FILL0_wght600_GRAD0_opsz48</title>
    <g id="Page-1" stroke="none" stroke-width="1" fill="none" fill-rule="evenodd">
        <g id="add_a_photo_FILL0_wght600_GRAD0_opsz48" fill="#000000" fill-rule="nonzero">
            <path d="M20.68155,32.0109 C23.0982167,32.0109 25.1232167,31.1942333 26.75655,29.5609 C28.3898833,27.9275667 29.20655,25.9025667 29.20655,23.4859 C29.20655,21.0692333 28.3898833,19.0525667 26.75655,17.4359 C25.1232167,15.8192333 23.0982167,15.0109 20.68155,15.0109 C18.2648833,15.0109 16.2482167,15.8192333 14.63155,17.4359 C13.0148833,19.0525667 12.20655,21.0692333 12.20655,23.4859 C12.20655,25.9025667 13.0148833,27.9275667 14.63155,29.5609 C16.2482167,31.1942333 18.2648833,32.0109 20.68155,32.0109 Z M3.96095,40.01745 C2.87738333,40.01745 1.94633333,39.6281833 1.1678,38.84965 C0.389266667,38.07115 5.32907052e-16,37.1401167 5.32907052e-16,36.05655 L5.32907052e-16,10.91525 C5.32907052e-16,9.85725 0.389266667,8.92788333 1.1678,8.12715 C1.94633333,7.32645 2.87738333,6.9261 3.96095,6.9261 L10.887,6.9261 L13.637,3.6261 C13.9978667,3.1652 14.4448333,2.82316667 14.9779,2.6 C15.5109667,2.3768 16.0756,2.2652 16.6718,2.2652 L26.24565,2.2652 C26.80255,2.2652 27.27185,2.45605 27.65355,2.83775 C28.03525,3.21945 28.2261,3.68875 28.2261,4.24565 L28.2261,10.91525 L3.96095,10.91525 L3.96095,36.05655 L37.42395,36.05655 L37.42395,17.14135 L39.4421,17.14135 C39.7111667,17.14135 39.9656833,17.1868 40.20565,17.2777 C40.4455833,17.3685667 40.6557333,17.5098667 40.8361,17.7016 C41.0164333,17.8933333 41.1576833,18.1123167 41.25985,18.35855 C41.36205,18.60475 41.41315,18.8591667 41.41315,19.1218 L41.41315,36.05655 C41.41315,37.1401167 41.0127833,38.07115 40.21205,38.84965 C39.4113167,39.6281833 38.48195,40.01745 37.42395,40.01745 L3.96095,40.01745 Z M37.4522,7.91525 L34.58725,7.91525 C34.1038167,7.91525 33.7061,7.75706667 33.3941,7.4407 C33.0821,7.12436667 32.9261,6.73236667 32.9261,6.2647 C32.9261,5.781 33.0821,5.38335 33.3941,5.07175 C33.7061,4.76018333 34.1038167,4.6044 34.58725,4.6044 L37.4522,4.6044 L37.4522,1.6696 C37.4522,1.19653333 37.60905,0.8 37.92275,0.48 C38.2364167,0.16 38.6390167,1.42108547e-15 39.13055,1.42108547e-15 C39.6221167,1.42108547e-15 40.0218,0.16 40.3296,0.48 C40.6374333,0.8 40.79135,1.19653333 40.79135,1.6696 L40.79135,4.6044 L43.7063,4.6044 C44.1817333,4.6044 44.57745,4.76123333 44.89345,5.0749 C45.20945,5.38856667 45.36745,5.78646667 45.36745,6.2686 C45.36745,6.7427 45.20745,7.13566667 44.88745,7.4475 C44.56745,7.75933333 44.1709333,7.91525 43.6979,7.91525 L40.79135,7.91525 L40.79135,10.7802 C40.79135,11.2636667 40.6345167,11.6613833 40.32085,11.97335 C40.0071833,12.28535 39.6045667,12.44135 39.113,12.44135 C38.6214667,12.44135 38.2217833,12.28535 37.91395,11.97335 C37.6061167,11.6613833 37.4522,11.2636667 37.4522,10.7802 L37.4522,7.91525 L37.4522,7.91525 Z M3.98595,10.91525 L3.98595,36.05655 L3.98595,10.91525 Z" id="Shape"></path>
        </g>
    </g>
</svg>