<svg xmlns="http://www.w3.org/2000/svg" width="17.759" height="10.395" viewBox="0 0 17.759 10.395">
  <path id="expand_more_FILL1_wght600_GRAD0_opsz48" d="M21.03,27.115A1.411,1.411,0,0,1,20.468,27a1.555,1.555,0,0,1-.487-.337l-7.414-7.414a1.36,1.36,0,0,1-.393-1.048,1.486,1.486,0,0,1,.431-1.048,1.294,1.294,0,0,1,1.067-.431,1.739,1.739,0,0,1,1.03.468L21.03,23.52l6.328-6.328a1.579,1.579,0,0,1,1.067-.449,1.233,1.233,0,0,1,1.067.449,1.146,1.146,0,0,1,.431,1.03,1.775,1.775,0,0,1-.468,1.067l-7.377,7.377a1.555,1.555,0,0,1-.487.337A1.411,1.411,0,0,1,21.03,27.115Z" transform="translate(-12.171 -16.72)"/>
</svg>
