<svg xmlns="http://www.w3.org/2000/svg" width="149.564" height="87.5" viewBox="0 0 149.564 87.5">
  <path id="expand_less_FILL0_wght600_GRAD0_opsz48_1_" data-name="expand_less_FILL0_wght600_GRAD0_opsz48 (1)" d="M246.76,513.436a12.571,12.571,0,0,1-3.883-8.753,11.439,11.439,0,0,1,3.568-8.753l62.379-62.379a12.588,12.588,0,0,1,4.13-2.829,12.362,12.362,0,0,1,9.246,0,12.588,12.588,0,0,1,4.13,2.829l62.379,62.064a11.714,11.714,0,0,1,3.726,8.773,11.584,11.584,0,0,1-3.726,8.732,12.518,12.518,0,0,1-17.821,0l-53.311-53-53.311,53.626a10.683,10.683,0,0,1-8.6,3.568A12.739,12.739,0,0,1,246.76,513.436Z" transform="translate(-242.871 -429.826)" fill="#fdf9f0"/>
</svg>
