<svg xmlns="http://www.w3.org/2000/svg" width="23.709" height="13.883" viewBox="0 0 23.709 13.883">
  <path id="expand_more_FILL1_wght600_GRAD0_opsz48" d="M24,30.6a1.884,1.884,0,0,1-.75-.15A2.076,2.076,0,0,1,22.6,30l-9.9-9.9a1.816,1.816,0,0,1-.525-1.4,1.984,1.984,0,0,1,.575-1.4,1.728,1.728,0,0,1,1.425-.575,2.322,2.322,0,0,1,1.375.625L24,25.8l8.45-8.45a2.108,2.108,0,0,1,1.425-.6,1.646,1.646,0,0,1,1.425.6,1.53,1.53,0,0,1,.575,1.375,2.37,2.37,0,0,1-.625,1.425L25.4,30a2.076,2.076,0,0,1-.65.45A1.884,1.884,0,0,1,24,30.6Z" transform="translate(-12.174 -16.717)" fill="#fff"/>
</svg>
