<svg xmlns="http://www.w3.org/2000/svg" width="12.926" height="22.853" viewBox="0 0 12.926 22.853" fill="#fff">
  <path id="chevron_right_FILL0_wght400_GRAD0_opsz48" d="M17.7,34.9a1.85,1.85,0,0,1-.425-1.1,1.354,1.354,0,0,1,.425-1.05l8.8-8.8L17.65,15.1a1.376,1.376,0,0,1-.375-1.075A1.538,1.538,0,0,1,17.7,12.95a1.412,1.412,0,0,1,1.075-.475,1.51,1.51,0,0,1,1.025.475l9.95,9.95a1.524,1.524,0,0,1,.35.5,1.562,1.562,0,0,1,0,1.1,1.524,1.524,0,0,1-.35.5l-9.9,9.9a1.354,1.354,0,0,1-1.05.425A1.85,1.85,0,0,1,17.7,34.9Z" transform="translate(-17.274 -12.474)" fill="#fff"/>
</svg>
