<svg width="48" height="38" viewBox="0 0 48 38" fill="none" xmlns="http://www.w3.org/2000/svg">
<path d="M13.2 0C15.3 0 17.3 0.441667 19.2 1.325C21.1 2.20833 22.7 3.43333 24 5C25.3 3.43333 26.9 2.20833 28.8 1.325C30.7 0.441667 32.7 0 34.8 0C38.5333 0 41.6667 1.26667 44.2 3.8C46.7333 6.33333 48 9.46667 48 13.2C48 14.4667 47.8333 15.7167 47.5 16.95C47.1667 18.1833 46.7 19.4 46.1 20.6C45.7333 19.9667 45.3 19.4 44.8 18.9C44.3 18.4 43.7167 18 43.05 17.7C43.35 16.9333 43.5833 16.1833 43.75 15.45C43.9167 14.7167 44 13.9667 44 13.2C44 10.6 43.1167 8.41667 41.35 6.65C39.5833 4.88333 37.4 4 34.8 4C32.1 4 30.025 4.74167 28.575 6.225C27.125 7.70833 25.6 9.36667 24 11.2C22.4 9.33333 20.875 7.66667 19.425 6.2C17.975 4.73333 15.9 4 13.2 4C10.6 4 8.41667 4.88333 6.65 6.65C4.88333 8.41667 4 10.6 4 13.2C4 13.9667 4.08333 14.7167 4.25 15.45C4.41667 16.1833 4.65 16.9333 4.95 17.7C4.28333 18 3.7 18.4 3.2 18.9C2.7 19.4 2.26667 19.9667 1.9 20.6C1.3 19.4 0.833333 18.1833 0.5 16.95C0.166667 15.7167 0 14.4667 0 13.2C0 9.46667 1.26667 6.33333 3.8 3.8C6.33333 1.26667 9.46667 0 13.2 0ZM2 38C1.43333 38 0.958333 37.8083 0.575 37.425C0.191667 37.0417 0 36.5667 0 36V34.85C0 33.3833 0.733333 32.2083 2.2 31.325C3.66667 30.4417 5.6 30 8 30C8.43333 30 8.84167 30.0167 9.225 30.05C9.60833 30.0833 9.98333 30.1333 10.35 30.2C9.88333 30.8667 9.54167 31.5833 9.325 32.35C9.10833 33.1167 9 33.9333 9 34.8V38H2ZM14 38C13.4333 38 12.9583 37.8083 12.575 37.425C12.1917 37.0417 12 36.5667 12 36V34.8C12 32.6333 13.1083 30.875 15.325 29.525C17.5417 28.175 20.4333 27.5 24 27.5C27.6 27.5 30.5 28.175 32.7 29.525C34.9 30.875 36 32.6333 36 34.8V36C36 36.5667 35.8083 37.0417 35.425 37.425C35.0417 37.8083 34.5667 38 34 38H14ZM39 38V34.8C39 33.9333 38.8833 33.1167 38.65 32.35C38.4167 31.5833 38.0833 30.8667 37.65 30.2C38.0167 30.1333 38.3917 30.0833 38.775 30.05C39.1583 30.0167 39.5667 30 40 30C42.4 30 44.3333 30.4417 45.8 31.325C47.2667 32.2083 48 33.3833 48 34.85V36C48 36.5667 47.8083 37.0417 47.425 37.425C47.0417 37.8083 46.5667 38 46 38H39ZM24 31.5C22.1 31.5 20.4 31.7583 18.9 32.275C17.4 32.7917 16.5167 33.3667 16.25 34H31.75C31.45 33.3333 30.5583 32.75 29.075 32.25C27.5917 31.75 25.9 31.5 24 31.5ZM8 28C6.9 28 5.95833 27.6083 5.175 26.825C4.39167 26.0417 4 25.1 4 24C4 22.9 4.39167 21.9583 5.175 21.175C5.95833 20.3917 6.9 20 8 20C9.1 20 10.0417 20.3917 10.825 21.175C11.6083 21.9583 12 22.9 12 24C12 25.1 11.6083 26.0417 10.825 26.825C10.0417 27.6083 9.1 28 8 28ZM40 28C38.9 28 37.9583 27.6083 37.175 26.825C36.3917 26.0417 36 25.1 36 24C36 22.9 36.3917 21.9583 37.175 21.175C37.9583 20.3917 38.9 20 40 20C41.1 20 42.0417 20.3917 42.825 21.175C43.6083 21.9583 44 22.9 44 24C44 25.1 43.6083 26.0417 42.825 26.825C42.0417 27.6083 41.1 28 40 28ZM24 26C22.3333 26 20.9167 25.4167 19.75 24.25C18.5833 23.0833 18 21.6667 18 20C18 18.3333 18.5833 16.9167 19.75 15.75C20.9167 14.5833 22.3333 14 24 14C25.6667 14 27.0833 14.5833 28.25 15.75C29.4167 16.9167 30 18.3333 30 20C30 21.6667 29.4167 23.0833 28.25 24.25C27.0833 25.4167 25.6667 26 24 26ZM24 18C23.4333 18 22.9583 18.1917 22.575 18.575C22.1917 18.9583 22 19.4333 22 20C22 20.5667 22.1917 21.0417 22.575 21.425C22.9583 21.8083 23.4333 22 24 22C24.5667 22 25.0417 21.8083 25.425 21.425C25.8083 21.0417 26 20.5667 26 20C26 19.4333 25.8083 18.9583 25.425 18.575C25.0417 18.1917 24.5667 18 24 18Z" fill="white"/>
</svg>
