<svg xmlns="http://www.w3.org/2000/svg" width="23.163" height="32" viewBox="0 0 23.163 32">
  <path id="nightlight_FILL0_wght500_GRAD0_opsz48" d="M24.5,5.475A14.336,14.336,0,0,0,14.4,9.393a12.453,12.453,0,0,0-4.227,9.476A12.393,12.393,0,0,0,14.4,28.326a14.375,14.375,0,0,0,10.094,3.9h.965a5.452,5.452,0,0,0,.733-.039,23.018,23.018,0,0,1-3.976-6.215,17.929,17.929,0,0,1,0-14.2,23.622,23.622,0,0,1,3.976-6.253,5.642,5.642,0,0,0-.753-.039H24.5Zm0,29.375a16.9,16.9,0,0,1-6.543-1.274,17.829,17.829,0,0,1-5.385-3.435A16.184,16.184,0,0,1,8.9,25.064a14.881,14.881,0,0,1,0-12.391,16.414,16.414,0,0,1,3.667-5.1,17.637,17.637,0,0,1,5.385-3.455A16.9,16.9,0,0,1,24.5,2.85a14.536,14.536,0,0,1,2.9.29,16.057,16.057,0,0,1,2.779.83.8.8,0,0,1,.54.618.848.848,0,0,1-.386.733A19.905,19.905,0,0,0,25.287,11.3a15.368,15.368,0,0,0-1.911,7.527,15.552,15.552,0,0,0,1.911,7.585,19.375,19.375,0,0,0,5.037,5.964.848.848,0,0,1,.386.733.8.8,0,0,1-.54.618,16.057,16.057,0,0,1-2.779.83A14.536,14.536,0,0,1,24.5,34.85ZM18.2,18.831Z" transform="translate(-7.55 -2.85)"/>
</svg>
