<svg width="19" height="14" viewBox="0 0 19 14" fill="none" xmlns="http://www.w3.org/2000/svg">
<path d="M11.2273 5.1625V3.675C11.7023 3.47083 12.1881 3.31771 12.6847 3.21563C13.1812 3.11354 13.703 3.0625 14.25 3.0625C14.6242 3.0625 14.9913 3.09167 15.3511 3.15C15.711 3.20833 16.0636 3.28125 16.4091 3.36875V4.76875C16.0636 4.6375 15.7146 4.53906 15.3619 4.47344C15.0093 4.40781 14.6386 4.375 14.25 4.375C13.703 4.375 13.1777 4.44427 12.6739 4.58281C12.1701 4.72135 11.6879 4.91458 11.2273 5.1625ZM11.2273 9.975V8.4875C11.7023 8.28333 12.1881 8.13021 12.6847 8.02812C13.1812 7.92604 13.703 7.875 14.25 7.875C14.6242 7.875 14.9913 7.90417 15.3511 7.9625C15.711 8.02083 16.0636 8.09375 16.4091 8.18125V9.58125C16.0636 9.45 15.7146 9.35156 15.3619 9.28594C15.0093 9.22031 14.6386 9.1875 14.25 9.1875C13.703 9.1875 13.1777 9.25313 12.6739 9.38437C12.1701 9.51562 11.6879 9.7125 11.2273 9.975ZM11.2273 7.56875V6.08125C11.7023 5.87708 12.1881 5.72396 12.6847 5.62187C13.1812 5.51979 13.703 5.46875 14.25 5.46875C14.6242 5.46875 14.9913 5.49792 15.3511 5.55625C15.711 5.61458 16.0636 5.6875 16.4091 5.775V7.175C16.0636 7.04375 15.7146 6.94531 15.3619 6.87969C15.0093 6.81406 14.6386 6.78125 14.25 6.78125C13.703 6.78125 13.1777 6.85052 12.6739 6.98906C12.1701 7.1276 11.6879 7.32083 11.2273 7.56875ZM4.75 10.5C5.42652 10.5 6.08504 10.5766 6.72557 10.7297C7.3661 10.8828 8.00303 11.1125 8.63636 11.4187V2.8C8.04621 2.45 7.42008 2.1875 6.75795 2.0125C6.09583 1.8375 5.42652 1.75 4.75 1.75C4.23182 1.75 3.71723 1.80104 3.20625 1.90312C2.69527 2.00521 2.20227 2.15833 1.72727 2.3625V11.025C2.23106 10.85 2.73125 10.7188 3.22784 10.6312C3.72443 10.5437 4.23182 10.5 4.75 10.5ZM10.3636 11.4187C10.997 11.1125 11.6339 10.8828 12.2744 10.7297C12.915 10.5766 13.5735 10.5 14.25 10.5C14.7682 10.5 15.2756 10.5437 15.7722 10.6312C16.2687 10.7188 16.7689 10.85 17.2727 11.025V2.3625C16.7977 2.15833 16.3047 2.00521 15.7937 1.90312C15.2828 1.80104 14.7682 1.75 14.25 1.75C13.5735 1.75 12.9042 1.8375 12.242 2.0125C11.5799 2.1875 10.9538 2.45 10.3636 2.8V11.4187ZM9.5 14C8.80909 13.4458 8.06061 13.0156 7.25455 12.7094C6.44848 12.4031 5.61364 12.25 4.75 12.25C4.14545 12.25 3.5517 12.3302 2.96875 12.4906C2.3858 12.651 1.82803 12.8771 1.29545 13.1687C0.993182 13.3292 0.701705 13.3219 0.421023 13.1469C0.140341 12.9719 0 12.7167 0 12.3812V1.8375C0 1.67708 0.0395833 1.52396 0.11875 1.37812C0.197917 1.23229 0.316667 1.12292 0.475 1.05C1.13712 0.7 1.82803 0.4375 2.54773 0.2625C3.26742 0.0875 4.00151 0 4.75 0C5.58485 0 6.4017 0.109375 7.20057 0.328125C7.99943 0.546875 8.76591 0.875 9.5 1.3125C10.2341 0.875 11.0006 0.546875 11.7994 0.328125C12.5983 0.109375 13.4152 0 14.25 0C14.9985 0 15.7326 0.0875 16.4523 0.2625C17.172 0.4375 17.8629 0.7 18.525 1.05C18.6833 1.12292 18.8021 1.23229 18.8813 1.37812C18.9604 1.52396 19 1.67708 19 1.8375V12.3812C19 12.7167 18.8597 12.9719 18.579 13.1469C18.2983 13.3219 18.0068 13.3292 17.7045 13.1687C17.172 12.8771 16.6142 12.651 16.0312 12.4906C15.4483 12.3302 14.8545 12.25 14.25 12.25C13.3864 12.25 12.5515 12.4031 11.7455 12.7094C10.9394 13.0156 10.1909 13.4458 9.5 14Z" fill="white"/>
</svg>
