<svg xmlns="http://www.w3.org/2000/svg" width="32" height="32" viewBox="0 0 32 32">
  <path id="wb_sunny_FILL0_wght500_GRAD0_opsz48" d="M17.7,5.969a1.158,1.158,0,0,1-.879-.359,1.206,1.206,0,0,1-.341-.861V2.956a1.217,1.217,0,0,1,.359-.9A1.174,1.174,0,0,1,17.7,1.7a1.158,1.158,0,0,1,.879.359,1.251,1.251,0,0,1,.341.9V4.749a1.225,1.225,0,0,1-1.22,1.22Zm0,27.731a1.158,1.158,0,0,1-.879-.359,1.251,1.251,0,0,1-.341-.9V30.65a1.225,1.225,0,0,1,1.22-1.22,1.158,1.158,0,0,1,.879.359,1.206,1.206,0,0,1,.341.861v1.794a1.217,1.217,0,0,1-.359.9A1.174,1.174,0,0,1,17.7,33.7ZM30.65,18.92a1.225,1.225,0,0,1-1.22-1.22,1.158,1.158,0,0,1,.359-.879,1.206,1.206,0,0,1,.861-.341h1.794a1.217,1.217,0,0,1,.9.359,1.174,1.174,0,0,1,.359.861,1.158,1.158,0,0,1-.359.879,1.251,1.251,0,0,1-.9.341Zm-27.695,0a1.217,1.217,0,0,1-.9-.359A1.174,1.174,0,0,1,1.7,17.7a1.158,1.158,0,0,1,.359-.879,1.251,1.251,0,0,1,.9-.341H4.749a1.225,1.225,0,0,1,1.22,1.22,1.158,1.158,0,0,1-.359.879,1.206,1.206,0,0,1-.861.341ZM26.274,9.09a1.256,1.256,0,0,1,0-1.758l.825-.825a1.225,1.225,0,0,1,.861-.341,1.158,1.158,0,0,1,.9.341,1.256,1.256,0,0,1,0,1.758L28,9.126a1.243,1.243,0,0,1-.861.323,1.174,1.174,0,0,1-.861-.359ZM6.579,28.857a1.256,1.256,0,0,1,0-1.758l.825-.825a1.339,1.339,0,0,1,.879-.341,1.25,1.25,0,0,1,.915.341,1.266,1.266,0,0,1,.323.879,1.2,1.2,0,0,1-.359.879l-.861.861a1.14,1.14,0,0,1-.843.323,1.2,1.2,0,0,1-.879-.359Zm20.52,0-.861-.825a1.339,1.339,0,0,1-.341-.879,1.25,1.25,0,0,1,.341-.915,1.266,1.266,0,0,1,.879-.323,1.2,1.2,0,0,1,.879.359l.861.861a1.2,1.2,0,0,1,.341.843,1.136,1.136,0,0,1-.341.879,1.256,1.256,0,0,1-1.758,0ZM7.4,9.09l-.861-.825A1.225,1.225,0,0,1,6.2,7.4a1.158,1.158,0,0,1,.341-.9,1.256,1.256,0,0,1,1.758,0l.861.861a1.317,1.317,0,0,1,.341.861,1.114,1.114,0,0,1-.341.861,1.256,1.256,0,0,1-1.758,0ZM17.7,25.771A8.023,8.023,0,0,1,9.628,17.7,8.023,8.023,0,0,1,17.7,9.628,8.023,8.023,0,0,1,25.771,17.7,8.023,8.023,0,0,1,17.7,25.771Zm0-2.439A5.574,5.574,0,0,0,23.332,17.7,5.574,5.574,0,0,0,17.7,12.068,5.574,5.574,0,0,0,12.068,17.7,5.574,5.574,0,0,0,17.7,23.332ZM17.7,17.7Z" transform="translate(-1.7 -1.7)" fill="#fff"/>
</svg>
