<svg xmlns="http://www.w3.org/2000/svg" width="29.17" height="36.425" viewBox="0 0 29.17 36.425">
  <path id="location_on_FILL0_wght500_GRAD0_opsz48" d="M170.521,189.735a3.224,3.224,0,1,0-2.271-.944A3.1,3.1,0,0,0,170.521,189.735Zm0,14.585a51.966,51.966,0,0,0,8.706-9.749q2.813-4.375,2.813-7.695a11.558,11.558,0,0,0-3.335-8.547,11.723,11.723,0,0,0-16.365,0A11.557,11.557,0,0,0,159,186.879q0,3.323,2.881,7.692A56.806,56.806,0,0,0,170.52,204.32Zm0,4.04a60.847,60.847,0,0,1-10.959-11.589q-3.626-5.348-3.626-9.892,0-6.834,4.4-10.889a14.823,14.823,0,0,1,20.373,0q4.4,4.055,4.4,10.889,0,4.545-3.626,9.892A60.846,60.846,0,0,1,170.52,208.36ZM170.52,186.88Z" transform="translate(-155.935 -171.935)" fill="#fff"/>
</svg>
