<svg xmlns="http://www.w3.org/2000/svg" width="150.877" height="104.545" viewBox="0 0 150.877 104.545">
  <path id="menu_FILL0_wght600_GRAD0_opsz48" d="M118.475,424.153a8.085,8.085,0,1,1,0-16.169H253.183a8.085,8.085,0,1,1,0,16.169Zm0-44.131a8.085,8.085,0,1,1,0-16.169H253.183a8.085,8.085,0,1,1,0,16.169Zm0-44.131a8,8,0,0,1-8.084-8.12,7.937,7.937,0,0,1,2.337-5.794,7.758,7.758,0,0,1,5.747-2.369H253.183a7.7,7.7,0,0,1,5.747,2.405,8.058,8.058,0,0,1,2.337,5.83,7.745,7.745,0,0,1-2.337,5.737,7.856,7.856,0,0,1-5.747,2.312Z" transform="translate(-110.391 -319.608)" fill="#fff"/>
</svg>
