<svg width="46" height="51" viewBox="0 0 46 51" fill="none" xmlns="http://www.w3.org/2000/svg">
<path d="M18.6875 32.0571V34.9714C18.6875 36.1857 19.1068 37.2179 19.9453 38.0679C20.7839 38.9179 21.8021 39.3429 23 39.3429C24.1979 39.3429 25.2161 38.9179 26.0547 38.0679C26.8932 37.2179 27.3125 36.1857 27.3125 34.9714V32.0571H30.1875C31.3854 32.0571 32.4036 31.6321 33.2422 30.7821C34.0807 29.9321 34.5 28.9 34.5 27.6857C34.5 26.4714 34.0807 25.4393 33.2422 24.5893C32.4036 23.7393 31.3854 23.3143 30.1875 23.3143H27.3125V20.4C27.3125 19.1857 26.8932 18.1536 26.0547 17.3036C25.2161 16.4536 24.1979 16.0286 23 16.0286C21.8021 16.0286 20.7839 16.4536 19.9453 17.3036C19.1068 18.1536 18.6875 19.1857 18.6875 20.4V23.3143H15.8125C14.6146 23.3143 13.5964 23.7393 12.7578 24.5893C11.9193 25.4393 11.5 26.4714 11.5 27.6857C11.5 28.9 11.9193 29.9321 12.7578 30.7821C13.5964 31.6321 14.6146 32.0571 15.8125 32.0571H18.6875ZM5.75 51C4.16875 51 2.8151 50.4293 1.68906 49.2879C0.563021 48.1464 0 46.7743 0 45.1714V18.9429C0 18.02 0.203646 17.1457 0.610937 16.32C1.01823 15.4943 1.58125 14.8143 2.3 14.28L19.55 1.16571C20.5562 0.388571 21.7062 0 23 0C24.2937 0 25.4438 0.388571 26.45 1.16571L43.7 14.28C44.4188 14.8143 44.9818 15.4943 45.3891 16.32C45.7964 17.1457 46 18.02 46 18.9429V45.1714C46 46.7743 45.437 48.1464 44.3109 49.2879C43.1849 50.4293 41.8312 51 40.25 51H5.75ZM5.75 45.1714H40.25V18.9429L23 5.82857L5.75 18.9429V45.1714Z" fill="white"/>
</svg>
