<svg width="15" height="20" viewBox="0 0 15 20" fill="none" xmlns="http://www.w3.org/2000/svg">
<path d="M7.5 3.33333C7.04167 3.33333 6.64931 3.17014 6.32292 2.84375C5.99653 2.51736 5.83333 2.125 5.83333 1.66667C5.83333 1.20833 5.99653 0.815972 6.32292 0.489583C6.64931 0.163194 7.04167 0 7.5 0C7.95833 0 8.35069 0.163194 8.67708 0.489583C9.00347 0.815972 9.16667 1.20833 9.16667 1.66667C9.16667 2.125 9.00347 2.51736 8.67708 2.84375C8.35069 3.17014 7.95833 3.33333 7.5 3.33333ZM5 15.8333V5.83333C4.16667 5.76389 3.31944 5.65972 2.45833 5.52083C1.59722 5.38194 0.777778 5.20833 0 5L0.416667 3.33333C1.5 3.625 2.65278 3.83681 3.875 3.96875C5.09722 4.10069 6.30556 4.16667 7.5 4.16667C8.69444 4.16667 9.90278 4.10069 11.125 3.96875C12.3472 3.83681 13.5 3.625 14.5833 3.33333L15 5C14.2222 5.20833 13.4028 5.38194 12.5417 5.52083C11.6806 5.65972 10.8333 5.76389 10 5.83333V15.8333H8.33333V10.8333H6.66667V15.8333H5ZM4.16667 20C3.93056 20 3.73264 19.9201 3.57292 19.7604C3.41319 19.6007 3.33333 19.4028 3.33333 19.1667C3.33333 18.9306 3.41319 18.7326 3.57292 18.5729C3.73264 18.4132 3.93056 18.3333 4.16667 18.3333C4.40278 18.3333 4.60069 18.4132 4.76042 18.5729C4.92014 18.7326 5 18.9306 5 19.1667C5 19.4028 4.92014 19.6007 4.76042 19.7604C4.60069 19.9201 4.40278 20 4.16667 20ZM7.5 20C7.26389 20 7.06597 19.9201 6.90625 19.7604C6.74653 19.6007 6.66667 19.4028 6.66667 19.1667C6.66667 18.9306 6.74653 18.7326 6.90625 18.5729C7.06597 18.4132 7.26389 18.3333 7.5 18.3333C7.73611 18.3333 7.93403 18.4132 8.09375 18.5729C8.25347 18.7326 8.33333 18.9306 8.33333 19.1667C8.33333 19.4028 8.25347 19.6007 8.09375 19.7604C7.93403 19.9201 7.73611 20 7.5 20ZM10.8333 20C10.5972 20 10.3993 19.9201 10.2396 19.7604C10.0799 19.6007 10 19.4028 10 19.1667C10 18.9306 10.0799 18.7326 10.2396 18.5729C10.3993 18.4132 10.5972 18.3333 10.8333 18.3333C11.0694 18.3333 11.2674 18.4132 11.4271 18.5729C11.5868 18.7326 11.6667 18.9306 11.6667 19.1667C11.6667 19.4028 11.5868 19.6007 11.4271 19.7604C11.2674 19.9201 11.0694 20 10.8333 20Z" fill="white"/>
</svg>
