<svg xmlns="http://www.w3.org/2000/svg" width="30.396" height="30.387" viewBox="0 0 30.396 30.387">
  <path id="phone_enabled_FILL0_wght500_GRAD0_opsz48" d="M142.311,240.169a2.067,2.067,0,0,0,2.107-2.117V232.4a2.107,2.107,0,0,0-.48-1.391,2.214,2.214,0,0,0-1.262-.752l-4.743-1.06a2.252,2.252,0,0,0-1.263.052,2.7,2.7,0,0,0-1.109.733l-3.995,4.1a27.8,27.8,0,0,1-6.267-4.665,33.869,33.869,0,0,1-5.039-6.475l4.193-4.135a1.916,1.916,0,0,0,.55-.95,3.071,3.071,0,0,0,.016-1.267l-1.111-5.074a2.189,2.189,0,0,0-.7-1.272,1.893,1.893,0,0,0-1.277-.459h-5.8a2.067,2.067,0,0,0-2.107,2.107,22.638,22.638,0,0,0,2.512,10.16,34.835,34.835,0,0,0,15.614,15.608A22.615,22.615,0,0,0,142.311,240.169Zm-23.475-19.793a31.984,31.984,0,0,1-1.5-4.314,13.612,13.612,0,0,1-.473-3.451h4.394l.945,4.429Zm15.354,15.094,3.261-3.417,4.128.862v4.4a20.586,20.586,0,0,1-7.389-1.849ZM118.837,220.376ZM134.19,235.471Z" transform="translate(-114.022 -209.782)" fill="#fff"/>
</svg>
