<svg xmlns="http://www.w3.org/2000/svg" width="37.123" height="37.123" viewBox="0 0 37.123 37.123">
  <path id="play_circle_FILL1_wght500_GRAD0_opsz48" d="M17.781,17.232V27.29a1.521,1.521,0,0,0,.8,1.417,1.416,1.416,0,0,0,1.577-.046l7.909-5.12a1.486,1.486,0,0,0,0-2.56l-7.909-5.12a1.388,1.388,0,0,0-1.577-.023A1.534,1.534,0,0,0,17.781,17.232Zm4.48,23.59a18.053,18.053,0,0,1-7.2-1.463,18.513,18.513,0,0,1-9.9-9.9,18.452,18.452,0,0,1,0-14.4,18.513,18.513,0,0,1,9.9-9.9,18.452,18.452,0,0,1,14.4,0,18.514,18.514,0,0,1,9.9,9.9,18.452,18.452,0,0,1,0,14.4,18.574,18.574,0,0,1-9.875,9.9,18,18,0,0,1-7.223,1.463Z" transform="translate(-3.7 -3.7)" fill="#fff"/>
</svg>
