<svg width="107" height="66" viewBox="0 0 107 66" fill="none" xmlns="http://www.w3.org/2000/svg">
<path d="M21.6668 62.7249C31.7921 62.7249 40.0002 55.0022 40.0002 45.4757C40.0002 35.9493 31.7921 28.2266 21.6668 28.2266C11.5416 28.2266 3.3335 35.9493 3.3335 45.4757C3.3335 55.0022 11.5416 62.7249 21.6668 62.7249Z" fill="#BDC3C7"/>
<path d="M21.6667 65.8606C9.72 65.8606 0 56.7154 0 45.4752C0 34.235 9.72 25.0898 21.6667 25.0898C33.6133 25.0898 43.3333 34.235 43.3333 45.4752C43.3333 56.7154 33.6133 65.8606 21.6667 65.8606ZM21.6667 31.3623C13.3967 31.3623 6.66667 37.6943 6.66667 45.4752C6.66667 53.2561 13.3967 59.5881 21.6667 59.5881C29.9367 59.5881 36.6667 53.2561 36.6667 45.4752C36.6667 37.6943 29.9367 31.3623 21.6667 31.3623Z" fill="#BDC3C7"/>
<path d="M78.3333 62.7249C88.4586 62.7249 96.6667 55.0022 96.6667 45.4757C96.6667 35.9493 88.4586 28.2266 78.3333 28.2266C68.2081 28.2266 60 35.9493 60 45.4757C60 55.0022 68.2081 62.7249 78.3333 62.7249Z" fill="#BDC3C7"/>
<path d="M78.3332 65.8606C66.3865 65.8606 56.6665 56.7154 56.6665 45.4752C56.6665 34.235 66.3865 25.0898 78.3332 25.0898C90.2798 25.0898 99.9998 34.235 99.9998 45.4752C99.9998 56.7154 90.2798 65.8606 78.3332 65.8606ZM78.3332 31.3623C70.0632 31.3623 63.3332 37.6943 63.3332 45.4752C63.3332 53.2561 70.0632 59.5881 78.3332 59.5881C86.6032 59.5881 93.3332 53.2561 93.3332 45.4752C93.3332 37.6943 86.6032 31.3623 78.3332 31.3623Z" fill="#BDC3C7"/>
<path d="M3.33333 47.0431C1.49 47.0431 0 45.6412 0 43.9069C0 19.6954 20.9333 0 46.6667 0C48.51 0 50 1.40189 50 3.13621C50 4.87053 48.51 6.27242 46.6667 6.27242C24.61 6.27242 6.66667 23.1546 6.66667 43.9069C6.66667 45.6412 5.17667 47.0431 3.33333 47.0431Z" fill="#BDC3C7"/>
<path d="M60.0001 47.0431C58.1567 47.0431 56.6667 45.6412 56.6667 43.9069C56.6667 19.6954 77.6001 0 103.333 0C105.177 0 106.667 1.40189 106.667 3.13621C106.667 4.87053 105.177 6.27242 103.333 6.27242C81.2767 6.27242 63.3334 23.1546 63.3334 43.9069C63.3334 45.6412 61.8434 47.0431 60.0001 47.0431Z" fill="#BDC3C7"/>
</svg>
