<svg xmlns="http://www.w3.org/2000/svg" width="24.999" height="25" viewBox="0 0 24.999 25">
  <g id="Group_214" data-name="Group 214" transform="translate(-912.001 -1078)">
    <g id="loupe" transform="translate(912 1078)">
      <g id="Group_26" data-name="Group 26">
        <g id="Group_25" data-name="Group 25">
          <path id="Path_30" data-name="Path 30" d="M11.009,0a11.009,11.009,0,1,0,11.01,11.009A11.009,11.009,0,0,0,11.009,0Zm0,19.986a8.977,8.977,0,1,1,8.977-8.977A8.977,8.977,0,0,1,11.009,19.986Z"/>
        </g>
      </g>
      <g id="Group_28" data-name="Group 28" transform="translate(17.141 17.141)">
        <g id="Group_27" data-name="Group 27">
          <path id="Path_31" data-name="Path 31" d="M358.607,357.17l-5.827-5.827a1.016,1.016,0,0,0-1.437,1.437l5.827,5.827a1.016,1.016,0,1,0,1.437-1.437Z" transform="translate(-351.046 -351.046)"/>
        </g>
      </g>
    </g>
  </g>
</svg>
