<svg width="56" height="50" viewBox="0 0 56 50" fill="none" xmlns="http://www.w3.org/2000/svg">
<path d="M28 50C25.9636 48.3761 23.7576 47.1154 21.3818 46.218C19.0061 45.3205 16.5455 44.8718 14 44.8718C12.2182 44.8718 10.4682 45.1068 8.75 45.5769C7.03182 46.047 5.38788 46.7094 3.81818 47.5641C2.92727 48.0342 2.06818 48.0128 1.24091 47.5C0.413636 46.9872 0 46.2393 0 45.2564V14.359C0 13.8889 0.116667 13.4402 0.35 13.0128C0.583333 12.5855 0.933333 12.265 1.4 12.0513C3.35152 11.0256 5.38788 10.2564 7.50909 9.74359C9.6303 9.23077 11.7939 8.97436 14 8.97436C16.4606 8.97436 18.8682 9.29487 21.2227 9.9359C23.5773 10.5769 25.8364 11.5385 28 12.8205V43.8462C30.1636 42.4786 32.4333 41.453 34.8091 40.7692C37.1848 40.0855 39.5818 39.7436 42 39.7436C43.5273 39.7436 45.0227 39.8718 46.4864 40.1282C47.95 40.3846 49.4242 40.7692 50.9091 41.2821V10.5128C51.5455 10.7265 52.1712 10.9509 52.7864 11.1859C53.4015 11.4209 54.0061 11.7094 54.6 12.0513C55.0667 12.265 55.4167 12.5855 55.65 13.0128C55.8833 13.4402 56 13.8889 56 14.359V45.2564C56 46.2393 55.5864 46.9872 54.7591 47.5C53.9318 48.0128 53.0727 48.0342 52.1818 47.5641C50.6121 46.7094 48.9682 46.047 47.25 45.5769C45.5318 45.1068 43.7818 44.8718 42 44.8718C39.4545 44.8718 36.9939 45.3205 34.6182 46.218C32.2424 47.1154 30.0364 48.3761 28 50ZM33.0909 37.1795V12.8205L45.8182 0V25.641L33.0909 37.1795ZM22.9091 41.3462V15.9615C21.5091 15.3632 20.0561 14.9038 18.55 14.5833C17.0439 14.2628 15.5273 14.1026 14 14.1026C12.4303 14.1026 10.903 14.2521 9.41818 14.5513C7.93333 14.8504 6.49091 15.2991 5.09091 15.8974V41.3462C6.57576 40.7906 8.05 40.3846 9.51364 40.1282C10.9773 39.8718 12.4727 39.7436 14 39.7436C15.5273 39.7436 17.0227 39.8718 18.4864 40.1282C19.95 40.3846 21.4242 40.7906 22.9091 41.3462Z" fill="white"/>
</svg>
