<svg xmlns="http://www.w3.org/2000/svg" width="29.999" height="30" viewBox="0 0 29.999 30">
  <g id="instagram" transform="translate(-0.449)">
    <path id="Path_54" data-name="Path 54" d="M30.366,8.82a10.962,10.962,0,0,0-.7-3.639,7.685,7.685,0,0,0-4.39-4.39,10.99,10.99,0,0,0-3.638-.7C20.034.018,19.524,0,15.452,0S10.869.018,9.269.088a10.965,10.965,0,0,0-3.639.7A7.32,7.32,0,0,0,2.969,2.52,7.386,7.386,0,0,0,1.24,5.174a10.991,10.991,0,0,0-.7,3.64C.467,10.42.449,10.93.449,15s.018,4.583.088,6.183a10.961,10.961,0,0,0,.7,3.639,7.684,7.684,0,0,0,4.39,4.39,10.992,10.992,0,0,0,3.639.7c1.6.071,2.11.088,6.183.088s4.583-.018,6.183-.088a10.959,10.959,0,0,0,3.639-.7,7.674,7.674,0,0,0,4.39-4.39,11,11,0,0,0,.7-3.639c.071-1.6.088-2.11.088-6.183S30.437,10.42,30.366,8.82Zm-2.7,12.248a8.222,8.222,0,0,1-.515,2.784A4.976,4.976,0,0,1,24.3,26.7a8.252,8.252,0,0,1-2.784.515c-1.582.071-2.057.088-6.059.088s-4.484-.018-6.059-.088A8.219,8.219,0,0,1,6.614,26.7a4.616,4.616,0,0,1-1.723-1.119,4.664,4.664,0,0,1-1.119-1.723,8.253,8.253,0,0,1-.515-2.784c-.071-1.582-.088-2.057-.088-6.059s.018-4.484.088-6.059a8.219,8.219,0,0,1,.515-2.784A4.56,4.56,0,0,1,4.9,4.448,4.657,4.657,0,0,1,6.62,3.329,8.257,8.257,0,0,1,9.4,2.814c1.582-.071,2.057-.088,6.059-.088s4.484.018,6.059.088a8.223,8.223,0,0,1,2.784.515,4.613,4.613,0,0,1,1.723,1.119,4.663,4.663,0,0,1,1.123,1.723,8.256,8.256,0,0,1,.512,2.785c.071,1.582.088,2.057.088,6.059S27.736,19.486,27.665,21.068Zm0,0" transform="translate(0)" fill="#fff"/>
    <path id="Path_55" data-name="Path 55" d="M133.353,124.5a8.4,8.4,0,1,0,8.4,8.4,8.4,8.4,0,0,0-8.4-8.4Zm0,13.855A5.451,5.451,0,1,1,138.8,132.9a5.451,5.451,0,0,1-5.451,5.451Zm0,0" transform="translate(-117.901 -117.901)" fill="#fff"/>
    <path id="Path_56" data-name="Path 56" d="M365.7,90.229a1.627,1.627,0,1,1-1.627-1.627,1.627,1.627,0,0,1,1.627,1.627Zm0,0" transform="translate(-340.509 -83.342)" fill="#fff"/>
  </g>
</svg>
