<svg xmlns="http://www.w3.org/2000/svg" width="27.557" height="31.795" viewBox="0 0 27.557 31.795">
  <path id="logo-tiktok-svgrepo-com" d="M72.084,22.8a7.238,7.238,0,0,1-.626-.364,8.8,8.8,0,0,1-1.608-1.366,7.582,7.582,0,0,1-1.812-3.738h.007A4.6,4.6,0,0,1,67.974,16H62.513V37.115c0,.283,0,.564-.012.841,0,.034,0,.066-.005.1a.228.228,0,0,1,0,.047v.012A4.637,4.637,0,0,1,60.16,41.8a4.557,4.557,0,0,1-2.259.6,4.637,4.637,0,0,1,0-9.273,4.564,4.564,0,0,1,1.418.225l.007-5.56a10.143,10.143,0,0,0-7.816,2.286,10.716,10.716,0,0,0-2.338,2.883,9.991,9.991,0,0,0-1.205,4.586,10.824,10.824,0,0,0,.586,3.625v.013a10.672,10.672,0,0,0,1.482,2.7A11.1,11.1,0,0,0,52.4,46.115V46.1l.013.013a10.217,10.217,0,0,0,5.574,1.678,9.868,9.868,0,0,0,4.137-.915,10.383,10.383,0,0,0,3.359-2.525,10.5,10.5,0,0,0,1.831-3.042,11.4,11.4,0,0,0,.659-3.479V26.63c.066.04.949.623.949.623A12.629,12.629,0,0,0,72.176,28.6a18.74,18.74,0,0,0,3.34.457V23.635A7.081,7.081,0,0,1,72.084,22.8Z" transform="translate(-47.959 -16)" fill="#fff"/>
</svg>
